<svg width="50" height="50" viewBox="0 0 50 50" xmlns="http://www.w3.org/2000/svg">
    <g fill="none" fill-rule="evenodd">
        <path d="M50 25c0 13.807-11.193 25-25 25S0 38.807 0 25 11.193 0 25 0s25 11.193 25 25" fill="#FF5A4A"/>
        <g fill="#FFF">
            <path d="M25.544 14.674a2.717 2.717 0 1 0 0 5.435 2.717 2.717 0 0 0 0-5.435M16.848 14.674a2.717 2.717 0 1 0 0 5.435 2.717 2.717 0 0 0 0-5.435M34.24 14.674a2.718 2.718 0 1 0 0 5.435 2.718 2.718 0 0 0 0-5.435M25.544 23.37a2.718 2.718 0 1 0 0 5.435 2.718 2.718 0 0 0 0-5.435M25.544 32.065a2.718 2.718 0 1 0 0 5.436 2.718 2.718 0 0 0 0-5.436"/>
        </g>
    </g>
</svg>